# xmcd
#
# Track frame offsets:
# 150
# 16409
# 51589
# 94014
# 122746
# 168489
#
# Disc length: 2679 seconds
#
# Revision: 0
# Processed by: cddbd v1.4PL0 Copyright (c) Steve Scherf et al.
# Submitted via: MacMP3 Pro 5.0 (http://mp3.act2.co.jp/)
#
DISCID=4b0a7506
DTITLE=UNKNOWN - RAEL' THEME
DYEAR=1900
DGENRE=
TTITLE0=ANGEL BREATH
TTITLE1=METAPHOR
TTITLE2=RESURRECTION
TTITLE3=INCANTATION
TTITLE4=CONSENSUAL WORLD
TTITLE5=HAT LANDS
EXTD=
EXTT0=
EXTT1=
EXTT2=
EXTT3=
EXTT4=
EXTT5=
PLAYORDER=
